# xmcd
#
# Track frame offsets:
# 150
# 12411
# 23903
# 35742
# 44870
# 57898
# 69517
# 83367
# 96371
# 105579
# 117798
# 130763
# 142096
# 155588
# 172382
# 185600
# 195225
# 206617
# 223556
# 232966
#
# Disc length: 3257 seconds
#
#
# Revision: 0
# Processed by: cddbd v1.5.2PL0 Copyright (c) Steve Scherf et al.
# Submitted via: FreeRIP 2.944 
#
DISCID=200cb714
DTITLE=Various Artist - I Love Country - 60 Classic Country Hits - CD 3
DYEAR=1900
DGENRE=Country
TTITLE0=Johnny Cash - I Walk The Line
TTITLE1=Skeeter Davis - Crying Time
TTITLE2=Tammy Wynette - D.I.V.O.R.C.E.
TTITLE3=Frankie Laine - Rawhide
TTITLE4=Hank Williams - Jambalaya
TTITLE5=Dave Duddley - Yellow Rose Of Texas
TTITLE6=George Jones - A Good Year For The Roses
TTITLE7=Freddy Fender - Silver Wings
TTITLE8=The Harden Trio - Tippytoeing
TTITLE9=Billie Jo Spears - What I've Got In Mind
TTITLE10=Kenny Rogers - Ruben James
TTITLE11=Dolly Parton - Makin' Believe
TTITLE12=Glen Campbell - Rhinestone Cowboy
TTITLE13=Ferlin Husky - Giddyup Go
TTITLE14=Alabama - Patches
TTITLE15=Ned Miller - From A Jack To A King
TTITLE16=Donna Fargo - Superman
TTITLE17=Connie Francis - Love Is Strange
TTITLE18=Willie Nelson - I'm Building Heartaches
TTITLE19=Bill Monroe and His Bluegrass Boys - Orange Blossom Special
EXTD=
EXTT0=
EXTT1=
EXTT2=
EXTT3=
EXTT4=
EXTT5=
EXTT6=
EXTT7=
EXTT8=
EXTT9=
EXTT10=
EXTT11=
EXTT12=
EXTT13=
EXTT14=
EXTT15=
EXTT16=
EXTT17=
EXTT18=
EXTT19=
PLAYORDER=
